<?xml version="1.0" encoding="UTF-8" standalone="no"?>
<!-- Created with Inkscape (http://www.inkscape.org/) -->

<svg
   width="128"
   height="128"
   viewBox="0 0 33.866668 33.866666"
   version="1.1"
   id="svg1"
   xml:space="preserve"
   inkscape:version="1.3.2 (091e20e, 2023-11-25)"
   sodipodi:docname="pen.svg"
   xmlns:inkscape="http://www.inkscape.org/namespaces/inkscape"
   xmlns:sodipodi="http://sodipodi.sourceforge.net/DTD/sodipodi-0.dtd"
   xmlns="http://www.w3.org/2000/svg"
   xmlns:svg="http://www.w3.org/2000/svg"><sodipodi:namedview
     id="namedview1"
     pagecolor="#ffffff"
     bordercolor="#000000"
     borderopacity="0.25"
     inkscape:showpageshadow="2"
     inkscape:pageopacity="0.0"
     inkscape:pagecheckerboard="0"
     inkscape:deskcolor="#d1d1d1"
     inkscape:document-units="mm"
     inkscape:zoom="19.190501"
     inkscape:cx="22.146373"
     inkscape:cy="109.06437"
     inkscape:window-width="1712"
     inkscape:window-height="1041"
     inkscape:window-x="0"
     inkscape:window-y="43"
     inkscape:window-maximized="1"
     inkscape:current-layer="layer1" /><defs
     id="defs1" /><g
     inkscape:label="Warstwa 1"
     inkscape:groupmode="layer"
     id="layer1"><path
       style="fill:#000000;stroke-width:0.306242"
       d="m 16.226287,10.753671 6.795108,6.825709 c 0,0 10.845272,-10.4998865 10.845272,-10.9647967 0,-0.9712988 -5.463099,-6.59473662 -6.35,-6.6145833 -0.836104,-0.01870996 -11.29038,10.753671 -11.29038,10.753671 z"
       id="path5"
       sodipodi:nodetypes="ccssc" /><path
       style="fill:#000000;stroke-width:0.306242"
       d="M 23.691335,3.8318256 C 23.691335,3.8318256 20.512,0 19.7674,0 16.20578,0 6.9310185,11.610626 6.9428297,12.432402 c 0.01456,1.013022 0.8600985,1.994299 1.8732253,1.994299 0.6201639,0 9.992176,-9.8257814 10.728031,-9.8257814 0.793487,0 1.713694,1.6522237 1.713694,1.6522237 z"
       id="path6"
       sodipodi:nodetypes="csssscc" /><path
       style="fill:#000000;stroke-width:0.306242"
       d="m 14.294453,12.628479 c 0.107598,0 6.846419,6.774164 6.846419,6.856598 0,0.0978 -14.790872,14.38159 -14.790872,14.38159 L 0,27.040417 c 0,0 14.163873,-14.411938 14.294453,-14.411938 z"
       id="path7"
       sodipodi:nodetypes="ssccs" /><path
       style="fill:#000000;stroke-width:0.264583"
       d="m 0,28.045833 5.2916667,5.820834 H 0 Z"
       id="path8"
       sodipodi:nodetypes="cccc" /></g></svg>
